<?xml version="1.0" encoding="utf-8"?>
<!-- Generator: Adobe Illustrator 16.0.0, SVG Export Plug-In . SVG Version: 6.00 Build 0)  -->
<!DOCTYPE svg PUBLIC "-//W3C//DTD SVG 1.1//EN" "http://www.w3.org/Graphics/SVG/1.1/DTD/svg11.dtd">
<svg version="1.1" id="Calque_1" xmlns="http://www.w3.org/2000/svg" xmlns:xlink="http://www.w3.org/1999/xlink" x="0px" y="0px"
width="595.28px" height="841.89px" viewBox="0 0 595.28 841.89" enable-background="new 0 0 595.28 841.89" xml:space="preserve">
<rect x="47.234" y="313.548" fill="#0C0D22" width="501.126" height="213.453"/>
<g>
<linearGradient id="SVGID_1_" gradientUnits="userSpaceOnUse" x1="157.2949" y1="413.9414" x2="247.2949" y2="413.9414">
<stop  offset="0" style="stop-color:#24ADCE"/>
<stop  offset="1" style="stop-color:#325AA6"/>
</linearGradient>
<path fill="url(#SVGID_1_)" d="M220.962,443.608c-11.213,0-20.334-9.121-20.334-20.333s9.121-20.334,20.334-20.334h18.333v-10.667
h-74v14.334c0,2.209-1.791,4-4,4s-4-1.791-4-4v-18.334c0-2.209,1.791-4,4-4h82c2.209,0,4,1.791,4,4v18.667c0,2.209-1.791,4-4,4
h-22.333c-6.801,0-12.334,5.533-12.334,12.334s5.533,12.333,12.334,12.333c2.209,0,4,1.791,4,4S223.171,443.608,220.962,443.608z"
/>
</g>
<g>
<linearGradient id="SVGID_2_" gradientUnits="userSpaceOnUse" x1="117.9609" y1="415.9175" x2="172.3398" y2="415.9175">
<stop  offset="0" style="stop-color:#24ADCE"/>
<stop  offset="1" style="stop-color:#325AA6"/>
</linearGradient>
<path fill="url(#SVGID_2_)" d="M159.364,442.227h-8.069c-2.209,0-4-1.791-4-4s1.791-4,4-4h8.069c2.743,0,4.976-2.232,4.976-4.977
c0-2.743-2.232-4.976-4.976-4.976h-10.737c-16.908,0-30.666-13.757-30.666-30.666c0-2.209,1.791-4,4-4s4,1.791,4,4
c0,12.498,10.168,22.666,22.666,22.666h10.737c7.154,0,12.976,5.821,12.976,12.976C172.34,436.405,166.519,442.227,159.364,442.227
z"/>
</g>
<g>
<linearGradient id="SVGID_3_" gradientUnits="userSpaceOnUse" x1="118.1377" y1="399.4004" x2="240.1405" y2="357.3993">
<stop  offset="0" style="stop-color:#24ADCE"/>
<stop  offset="1" style="stop-color:#325AA6"/>
</linearGradient>
<path fill="url(#SVGID_3_)" d="M147.961,397.608h-26c-2.209,0-4-1.791-4-4s1.791-4,4-4h26c2.209,0,4.001,1.791,4.001,4
S150.17,397.608,147.961,397.608z"/>
</g>
<g>
<linearGradient id="SVGID_4_" gradientUnits="userSpaceOnUse" x1="136.1504" y1="445.25" x2="224.9619" y2="445.25">
<stop  offset="0" style="stop-color:#24ADCE"/>
<stop  offset="1" style="stop-color:#325AA6"/>
</linearGradient>
<path fill="url(#SVGID_4_)" d="M220.962,456.274l-27.967-0.001c-1.109,0-2.17-0.461-2.926-1.272
c-2.24-2.403-5.283-3.728-8.566-3.728s-6.326,1.323-8.566,3.727c-0.756,0.812-1.815,1.272-2.924,1.272l-29.862,0.002
c-2.209,0-4-1.791-4-4v-14.048c0-2.209,1.791-4,4-4s4,1.791,4,4v10.048l24.236-0.001c3.592-3.196,8.278-5,13.116-5
s9.525,1.804,13.116,5l26.343,0.001c2.209,0,4,1.791,4,4S223.171,456.274,220.962,456.274z"/>
</g>
<g>
<path fill="#FFFFFF" d="M277.989,410.466c0-2.842,2.173-5.098,5.016-5.098c2.841,0,5.097,2.256,5.097,5.098v2.089
c2.843-3.928,6.687-7.605,13.457-7.605c6.352,0,10.865,3.093,13.205,7.772c3.51-4.68,8.19-7.772,14.876-7.772
c9.611,0,15.461,6.102,15.461,16.882V445.4c0,2.843-2.173,5.015-5.014,5.015c-2.842,0-5.098-2.172-5.098-5.015v-20.476
c0-7.021-3.261-10.781-8.942-10.781c-5.517,0-9.444,3.845-9.444,10.948V445.4c0,2.843-2.258,5.015-5.015,5.015
c-2.843,0-5.099-2.172-5.099-5.015v-20.559c0-6.854-3.343-10.698-8.943-10.698c-5.6,0-9.444,4.178-9.444,10.948V445.4
c0,2.843-2.256,5.015-5.097,5.015c-2.759,0-5.016-2.172-5.016-5.015V410.466z"/>
<path fill="#FFFFFF" d="M350.275,437.295v-0.168c0-9.527,7.438-14.209,18.22-14.209c4.932,0,8.441,0.752,11.868,1.84v-1.088
c0-6.267-3.846-9.61-10.949-9.61c-3.844,0-7.02,0.669-9.778,1.755c-0.586,0.167-1.087,0.251-1.588,0.251
c-2.341,0-4.263-1.838-4.263-4.18c0-1.839,1.254-3.426,2.758-4.01c4.179-1.589,8.441-2.592,14.208-2.592
c6.603,0,11.534,1.755,14.626,4.932c3.26,3.176,4.764,7.855,4.764,13.622v21.73c0,2.758-2.173,4.847-4.931,4.847
c-2.925,0-4.931-2.005-4.931-4.263v-1.67c-3.01,3.593-7.606,6.436-14.375,6.436C357.631,450.918,350.275,446.152,350.275,437.295z
M380.53,434.117v-3.008c-2.591-1.004-6.017-1.756-10.029-1.756c-6.519,0-10.364,2.759-10.364,7.355v0.167
c0,4.263,3.761,6.687,8.609,6.687C375.432,443.562,380.53,439.717,380.53,434.117z"/>
<path fill="#FFFFFF" d="M398.659,393.583c0-2.758,2.173-5.014,5.015-5.014c2.843,0,5.099,2.256,5.099,5.014V445.4
c0,2.843-2.256,5.015-5.099,5.015c-2.757,0-5.015-2.172-5.015-5.015V393.583z"/>
<path fill="#FFFFFF" d="M418.381,393.583c0-2.758,2.174-5.014,5.015-5.014c2.842,0,5.099,2.256,5.099,5.014V445.4
c0,2.843-2.257,5.015-5.099,5.015c-2.757,0-5.015-2.172-5.015-5.015V393.583z"/>
<path fill="#FFFFFF" d="M457.743,451c-12.788,0-22.65-9.276-22.65-22.899v-0.168c0-12.619,8.943-22.983,21.563-22.983
c14.041,0,20.978,11.533,20.978,21.73c0,2.842-2.173,4.848-4.764,4.848h-27.664c1.087,7.188,6.185,11.199,12.704,11.199
c4.262,0,7.606-1.504,10.447-3.844c0.752-0.586,1.421-0.92,2.59-0.92c2.258,0,4.013,1.754,4.013,4.096
c0,1.253-0.586,2.34-1.338,3.092C469.611,448.744,464.596,451,457.743,451z M467.771,424.842
c-0.667-6.52-4.513-11.617-11.198-11.617c-6.185,0-10.531,4.764-11.45,11.617H467.771z"/>
</g>
<g>
<path fill="#FFFFFF" d="M350.126,460.953c0-0.775,0.593-1.367,1.367-1.367c0.772,0,1.39,0.592,1.39,1.367v5.354
c0.887-1.253,2.141-2.255,4.1-2.255c2.824,0,5.581,2.23,5.581,6.24v0.047c0,3.986-2.732,6.241-5.581,6.241
c-2.004,0-3.257-1.002-4.1-2.118v0.613c0,0.752-0.617,1.369-1.39,1.369c-0.753,0-1.367-0.617-1.367-1.369V460.953z M359.762,470.34
v-0.047c0-2.322-1.571-3.85-3.439-3.85s-3.507,1.549-3.507,3.85v0.047c0,2.3,1.639,3.85,3.507,3.85
C358.212,474.189,359.762,472.707,359.762,470.34z"/>
<path fill="#FFFFFF" d="M364.194,479.701c-0.409-0.136-0.864-0.478-0.864-1.139c0-0.684,0.523-1.138,1.116-1.138
c0.227,0,0.366,0.044,0.501,0.09c0.319,0.091,0.569,0.159,0.957,0.159c0.819,0,1.252-0.342,1.708-1.275l0.091-0.25l-4.464-9.978
c-0.093-0.205-0.161-0.479-0.161-0.661c0-0.775,0.593-1.345,1.368-1.345c0.706,0,1.095,0.411,1.343,1.048l3.235,7.996l3.007-7.996
c0.228-0.568,0.616-1.048,1.32-1.048c0.729,0,1.321,0.569,1.321,1.299c0,0.228-0.067,0.524-0.112,0.661l-4.397,10.547
c-1.025,2.46-2.119,3.371-4.054,3.371C365.334,480.043,364.766,479.928,364.194,479.701z"/>
<linearGradient id="SVGID_5_" gradientUnits="userSpaceOnUse" x1="494.7002" y1="468.9717" x2="302.8209" y2="467.8879">
<stop  offset="0" style="stop-color:#24ADCE"/>
<stop  offset="1" style="stop-color:#325AA6"/>
</linearGradient>
<path fill="url(#SVGID_5_)" d="M382.16,461.798c0-0.798,0.615-1.414,1.411-1.414h4.534c5.01,0,8.475,3.44,8.475,7.928v0.046
c0,4.486-3.465,7.973-8.475,7.973h-4.534c-0.796,0-1.411-0.614-1.411-1.412V461.798z M388.105,473.778
c3.348,0,5.535-2.255,5.535-5.376v-0.045c0-3.121-2.188-5.422-5.535-5.422h-3.144v10.843H388.105z"/>
<linearGradient id="SVGID_6_" gradientUnits="userSpaceOnUse" x1="494.6924" y1="470.8418" x2="302.8049" y2="469.758">
<stop  offset="0" style="stop-color:#24ADCE"/>
<stop  offset="1" style="stop-color:#325AA6"/>
</linearGradient>
<path fill="url(#SVGID_6_)" d="M404.019,476.604c-3.483,0-6.173-2.529-6.173-6.242v-0.045c0-3.44,2.438-6.264,5.879-6.264
c3.827,0,5.716,3.143,5.716,5.922c0,0.775-0.592,1.32-1.298,1.32h-7.539c0.296,1.961,1.685,3.053,3.461,3.053
c1.163,0,2.073-0.41,2.849-1.048c0.204-0.159,0.387-0.249,0.706-0.249c0.615,0,1.093,0.478,1.093,1.115
c0,0.343-0.159,0.638-0.364,0.843C407.254,475.989,405.886,476.604,404.019,476.604z M406.754,469.475
c-0.183-1.777-1.23-3.167-3.053-3.167c-1.687,0-2.872,1.297-3.122,3.167H406.754z"/>
<linearGradient id="SVGID_7_" gradientUnits="userSpaceOnUse" x1="494.6982" y1="468.4795" x2="302.8326" y2="467.3958">
<stop  offset="0" style="stop-color:#24ADCE"/>
<stop  offset="1" style="stop-color:#325AA6"/>
</linearGradient>
<path fill="url(#SVGID_7_)" d="M411.279,460.953c0-0.75,0.592-1.367,1.365-1.367c0.776,0,1.391,0.617,1.391,1.367v14.123
c0,0.775-0.614,1.369-1.391,1.369c-0.75,0-1.365-0.594-1.365-1.369V460.953z"/>
<linearGradient id="SVGID_8_" gradientUnits="userSpaceOnUse" x1="494.6875" y1="469.1348" x2="302.8414" y2="468.0512">
<stop  offset="0" style="stop-color:#24ADCE"/>
<stop  offset="1" style="stop-color:#325AA6"/>
</linearGradient>
<path fill="url(#SVGID_8_)" d="M417.062,473.004v-6.333h-0.454c-0.661,0-1.186-0.524-1.186-1.185s0.524-1.184,1.186-1.184h0.454
v-2.049c0-0.754,0.615-1.369,1.391-1.369c0.751,0,1.366,0.615,1.366,1.369v2.049h2.164c0.66,0,1.207,0.523,1.207,1.184
s-0.547,1.185-1.207,1.185h-2.164v5.9c0,1.07,0.547,1.503,1.481,1.503c0.317,0,0.592-0.067,0.683-0.067
c0.614,0,1.16,0.502,1.16,1.138c0,0.502-0.341,0.912-0.727,1.072c-0.592,0.204-1.163,0.318-1.892,0.318
C418.496,476.535,417.062,475.646,417.062,473.004z"/>
<linearGradient id="SVGID_9_" gradientUnits="userSpaceOnUse" x1="494.707" y1="470.7344" x2="302.789" y2="469.6504">
<stop  offset="0" style="stop-color:#24ADCE"/>
<stop  offset="1" style="stop-color:#325AA6"/>
</linearGradient>
<path fill="url(#SVGID_9_)" d="M423.913,472.868v-0.046c0-2.598,2.028-3.872,4.967-3.872c1.343,0,2.301,0.204,3.235,0.5v-0.296
c0-1.709-1.049-2.619-2.985-2.619c-1.047,0-1.914,0.182-2.665,0.478c-0.16,0.046-0.296,0.068-0.434,0.068
c-0.638,0-1.16-0.5-1.16-1.139c0-0.501,0.341-0.935,0.752-1.093c1.139-0.434,2.301-0.707,3.871-0.707
c1.8,0,3.144,0.479,3.986,1.344c0.889,0.865,1.3,2.143,1.3,3.713v5.924c0,0.752-0.594,1.322-1.345,1.322
c-0.798,0-1.345-0.549-1.345-1.163v-0.456c-0.82,0.979-2.072,1.755-3.918,1.755C425.917,476.581,423.913,475.282,423.913,472.868z
M432.16,472.002v-0.82c-0.706-0.273-1.641-0.479-2.734-0.479c-1.777,0-2.823,0.751-2.823,2.004v0.047
c0,1.162,1.024,1.823,2.345,1.823C430.77,474.577,432.16,473.528,432.16,472.002z"/>
<linearGradient id="SVGID_10_" gradientUnits="userSpaceOnUse" x1="494.7207" y1="468.3867" x2="302.795" y2="467.3027">
<stop  offset="0" style="stop-color:#24ADCE"/>
<stop  offset="1" style="stop-color:#325AA6"/>
</linearGradient>
<path fill="url(#SVGID_10_)" d="M436.937,460.953c0-0.775,0.593-1.367,1.368-1.367c0.773,0,1.391,0.592,1.391,1.367v5.354
c0.888-1.253,2.14-2.255,4.101-2.255c2.822,0,5.581,2.23,5.581,6.24v0.047c0,3.986-2.734,6.241-5.581,6.241
c-2.007,0-3.26-1.002-4.101-2.118v0.613c0,0.752-0.617,1.369-1.391,1.369c-0.752,0-1.368-0.617-1.368-1.369V460.953z
M446.574,470.34v-0.047c0-2.322-1.572-3.85-3.439-3.85c-1.87,0-3.509,1.549-3.509,3.85v0.047c0,2.3,1.639,3.85,3.509,3.85
C445.024,474.189,446.574,472.707,446.574,470.34z"/>
<linearGradient id="SVGID_11_" gradientUnits="userSpaceOnUse" x1="494.6914" y1="468.2539" x2="302.8918" y2="467.1706">
<stop  offset="0" style="stop-color:#24ADCE"/>
<stop  offset="1" style="stop-color:#325AA6"/>
</linearGradient>
<path fill="url(#SVGID_11_)" d="M451.235,460.953c0-0.75,0.591-1.367,1.365-1.367c0.775,0,1.39,0.617,1.39,1.367v14.123
c0,0.775-0.614,1.369-1.39,1.369c-0.75,0-1.365-0.594-1.365-1.369V460.953z"/>
<linearGradient id="SVGID_12_" gradientUnits="userSpaceOnUse" x1="494.6992" y1="470.5117" x2="302.8104" y2="469.4279">
<stop  offset="0" style="stop-color:#24ADCE"/>
<stop  offset="1" style="stop-color:#325AA6"/>
</linearGradient>
<path fill="url(#SVGID_12_)" d="M455.787,470.385v-0.045c0-3.44,2.733-6.287,6.424-6.287c3.691,0,6.401,2.801,6.401,6.24v0.047
c0,3.416-2.734,6.264-6.448,6.264C458.499,476.604,455.787,473.802,455.787,470.385z M465.855,470.385v-0.045
c0-2.119-1.526-3.873-3.691-3.873c-2.207,0-3.62,1.73-3.62,3.826v0.047c0,2.095,1.526,3.85,3.667,3.85
C464.445,474.189,465.855,472.458,465.855,470.385z"/>
<linearGradient id="SVGID_13_" gradientUnits="userSpaceOnUse" x1="494.7109" y1="468.8311" x2="302.8073" y2="467.7472">
<stop  offset="0" style="stop-color:#24ADCE"/>
<stop  offset="1" style="stop-color:#325AA6"/>
</linearGradient>
<path fill="url(#SVGID_13_)" d="M470.838,473.004v-6.333h-0.455c-0.661,0-1.186-0.524-1.186-1.185s0.524-1.184,1.186-1.184h0.455
v-2.049c0-0.754,0.614-1.369,1.39-1.369c0.752,0,1.366,0.615,1.366,1.369v2.049h2.164c0.66,0,1.207,0.523,1.207,1.184
s-0.547,1.185-1.207,1.185h-2.164v5.9c0,1.07,0.547,1.503,1.481,1.503c0.317,0,0.592-0.067,0.683-0.067
c0.615,0,1.163,0.502,1.163,1.138c0,0.502-0.345,0.912-0.731,1.072c-0.59,0.204-1.16,0.318-1.89,0.318
C472.271,476.535,470.838,475.646,470.838,473.004z"/>
</g>
</svg>
